<svg width="381" height="462" viewBox="0 0 381 462" fill="none" xmlns="http://www.w3.org/2000/svg">
<g clip-path="url(#clip0_2_5)">
<path d="M201.414 208.812C201.424 213.323 201.433 217.834 201.433 222.355C204.533 224.338 207.625 226.331 210.716 228.324L265.544 263.575V258.5C265.544 234.176 265.544 209.843 265.572 185.519L201.294 146.613L201.414 208.803V208.812Z" fill="#82A9F9"/>
<path d="M104.687 164.257L141.125 142.656C156.48 133.556 171.844 124.447 187.198 115.338C188.263 114.706 189.336 114.385 190.41 114.385C191.484 114.385 192.585 114.715 193.659 115.367C202.877 120.986 212.114 126.576 221.36 132.176L236.224 141.178C249.57 149.257 262.916 157.335 276.253 165.433C292.737 155.41 309.239 145.407 325.741 135.403L347.297 122.337L254.244 65.2805C232.883 52.1756 211.531 39.0513 190.188 25.927C177.971 33.4613 165.744 40.9762 153.518 48.4911L33.5322 122.279L45.7863 129.502C65.426 141.09 85.0659 152.679 104.696 164.277L104.687 164.257Z" fill="url(#paint0_linear_2_5)"/>
<path d="M178.137 344.606L177.878 344.431L125.113 310.376C115.858 304.397 106.612 298.418 97.3473 292.459C95.2741 291.127 94.1264 289.018 94.1357 286.519C94.1357 283.787 94.1357 281.046 94.0986 278.304L93.2749 204.526C93.2009 197.614 93.1268 190.702 93.0713 183.79C91.211 182.711 89.3507 181.612 87.4996 180.514L21.8979 141.841V245.396C21.8979 274.814 21.8979 304.242 21.8794 333.66C36.4473 342.458 51.0059 351.275 65.5645 360.103L179.155 428.942V425.442C179.155 416.965 179.146 408.575 179.155 400.185C179.183 388.578 179.22 376.97 179.257 365.352L179.322 346.492C179.322 346.123 179.34 345.744 179.368 345.355C179.044 345.18 178.729 345.005 178.433 344.81C178.405 344.791 178.155 344.616 178.128 344.606H178.137Z" fill="url(#paint1_linear_2_5)"/>
<path d="M115.997 183.993C115.691 184.168 115.367 184.343 115.034 184.508C115.062 184.839 115.08 185.169 115.09 185.49L115.886 262.788L122.531 258.539C141.504 246.416 160.487 234.303 179.479 222.199C179.451 212.312 179.442 202.425 179.442 192.538L179.414 146.419L116.006 183.993H115.997Z" fill="#CCFCFF"/>
<path d="M255.086 283.864L222.665 263.001C211.882 256.07 201.1 249.128 190.327 242.177C173.824 252.735 157.313 263.283 140.801 273.831L125.512 283.592L138.367 291.884C155.656 303.035 172.945 314.196 190.216 325.376C207.255 314.458 224.303 303.55 241.361 292.643L255.086 283.864Z" fill="#CEC3FC"/>
<path d="M358.348 142.249L356.08 143.62C333.192 157.492 310.303 171.365 287.406 185.209C287.424 205.313 287.433 225.408 287.433 245.503L287.452 286.519C287.452 288.91 286.425 290.835 284.481 292.07C281.047 294.228 277.641 296.416 274.235 298.603L263.305 305.603C242.619 318.844 221.943 332.075 201.248 345.296C201.229 351.421 201.202 357.546 201.165 363.67L200.942 428.942L247.163 400.914C284.231 378.438 321.289 355.971 358.366 333.523C358.348 271.615 358.348 209.717 358.348 147.81V142.259V142.249Z" fill="url(#paint2_linear_2_5)"/>
<path d="M380.227 119.645C380.227 117.117 379.237 115.231 377.265 114.026C368.501 108.689 359.754 103.313 351.008 97.9365L250.884 36.5147C234.465 26.443 218.055 16.3713 201.655 6.28021C200.785 5.74552 199.906 5.22057 199.026 4.6956C196.851 3.39289 194.797 2.15822 192.825 0.787456C192.085 0.272205 191.215 0 190.336 0H189.91C188.716 0 187.615 0.495803 186.8 1.30271C180.645 5.10389 174.491 8.89538 168.327 12.6868L3.32268 114.133C1.18471 115.455 0 117.594 0 120.18C0.0185106 194.502 0.0185106 268.834 0 343.147C0 346.365 1.70299 348.066 3.13757 348.932C18.631 358.274 34.1059 367.646 49.5808 377.027L135.054 428.854C152.259 439.275 169.465 449.697 186.661 460.138C187.763 460.809 188.901 461.139 190.03 461.139C191.159 461.139 192.298 460.799 193.39 460.138C212.715 448.394 232.049 436.67 251.384 424.946L255.354 422.544C295.726 398.075 336.107 373.595 376.497 349.155C378.968 347.668 380.227 345.354 380.227 342.292C380.218 296.92 380.218 251.559 380.218 206.197V119.655L380.227 119.645ZM153.518 48.4724C165.744 40.9576 177.98 33.4329 190.188 25.9083C211.53 39.0326 232.882 52.157 254.244 65.2618L347.297 122.319L325.741 135.384C309.239 145.388 292.737 155.392 276.253 165.415C262.916 157.317 249.57 149.238 236.224 141.159L221.359 132.157C212.123 126.567 202.886 120.967 193.658 115.348C192.585 114.687 191.493 114.366 190.41 114.366C189.327 114.366 188.272 114.677 187.198 115.319C171.844 124.428 156.48 133.537 141.125 142.637L104.687 164.239C85.0564 152.641 65.4166 141.052 45.7768 129.464L33.5228 122.241L153.509 48.453L153.518 48.4724ZM265.581 185.519C265.554 209.843 265.554 234.176 265.554 258.5V263.575L210.725 228.324C207.634 226.331 204.543 224.338 201.442 222.355C201.442 217.844 201.442 213.333 201.424 208.813L201.303 146.623L265.581 185.529V185.519ZM179.47 222.199C160.478 234.303 141.505 246.416 122.522 258.539L115.877 262.787L115.081 185.49C115.081 185.169 115.053 184.839 115.025 184.508C115.358 184.343 115.682 184.168 115.988 183.993L179.396 146.419L179.424 192.538C179.424 202.425 179.424 212.312 179.461 222.199H179.47ZM179.331 346.491L179.266 365.351C179.229 376.959 179.183 388.567 179.164 400.184C179.146 408.574 179.155 416.964 179.164 425.441V428.941L65.5832 360.102C51.0246 351.274 36.466 342.447 21.8981 333.659C21.9166 304.241 21.9166 274.813 21.9166 245.395V141.84L87.5183 180.513C89.3786 181.611 91.239 182.71 93.09 183.789C93.1456 190.701 93.2196 197.613 93.2936 204.525L94.1173 278.303C94.1451 281.045 94.1636 283.786 94.1544 286.518C94.1544 289.017 95.2835 291.126 97.366 292.458C106.631 298.417 115.877 304.396 125.132 310.375L177.896 344.43L178.156 344.605C178.156 344.605 178.433 344.8 178.461 344.81C178.757 345.004 179.072 345.189 179.396 345.354C179.368 345.743 179.35 346.122 179.35 346.491H179.331ZM190.225 325.366C172.954 314.186 155.665 303.026 138.376 291.875L125.521 283.582L140.81 273.822C157.322 263.274 173.843 252.735 190.336 242.168C201.109 249.119 211.891 256.06 222.674 262.992L255.095 283.854L241.369 292.633C224.321 303.541 207.264 314.439 190.225 325.366ZM247.163 400.894L200.942 428.922L201.164 363.65C201.192 357.526 201.229 351.391 201.248 345.276C221.943 332.055 242.619 318.814 263.305 305.582L274.235 298.583C277.641 296.395 281.047 294.218 284.481 292.05C286.434 290.815 287.461 288.89 287.452 286.499L287.433 245.483C287.433 225.388 287.424 205.293 287.405 185.189C310.303 171.345 333.192 157.472 356.08 143.599L358.347 142.229V147.78C358.347 209.678 358.348 271.586 358.366 333.493C321.289 355.941 284.231 378.417 247.163 400.884V400.894Z" fill="url(#paint3_linear_2_5)"/>
</g>
<defs>
<linearGradient id="paint0_linear_2_5" x1="190.415" y1="25.927" x2="190.415" y2="165.433" gradientUnits="userSpaceOnUse">
<stop offset="0.239583" stop-color="#CEC3FC"/>
<stop offset="1" stop-color="#CEC3FC" stop-opacity="0"/>
</linearGradient>
<linearGradient id="paint1_linear_2_5" x1="100.624" y1="141.841" x2="100.624" y2="428.942" gradientUnits="userSpaceOnUse">
<stop offset="0.515625" stop-color="#82A9F9"/>
<stop offset="1" stop-color="#82A9F9" stop-opacity="0"/>
</linearGradient>
<linearGradient id="paint2_linear_2_5" x1="279.654" y1="142.249" x2="279.654" y2="428.942" gradientUnits="userSpaceOnUse">
<stop offset="0.677083" stop-color="#CCFCFF"/>
<stop offset="1" stop-color="#CCFCFF" stop-opacity="0"/>
</linearGradient>
<linearGradient id="paint3_linear_2_5" x1="190.113" y1="0" x2="190.113" y2="461.139" gradientUnits="userSpaceOnUse">
<stop stop-color="#6A61BF"/>
<stop offset="1" stop-color="#82A9F9"/>
</linearGradient>
<clipPath id="clip0_2_5">
<rect width="381" height="462" fill="white"/>
</clipPath>
</defs>
</svg>
