<svg width="4026" height="906" viewBox="0 0 4026 906" fill="none" xmlns="http://www.w3.org/2000/svg">
<path d="M1274.55 414.81C1274.55 422.222 1274.55 429.635 1274.55 437.12C1279.82 440.39 1285.03 443.66 1290.31 446.931L1383.31 504.923V496.566C1383.31 456.523 1383.31 416.481 1383.31 376.438L1274.26 312.414L1274.47 414.737L1274.55 414.81Z" fill="#AAAAAA"/>
<path d="M1110.45 341.551L1172.28 306.014C1198.31 291.044 1224.41 276.073 1250.44 261.03C1252.23 260.013 1254.08 259.432 1255.86 259.432C1257.65 259.432 1259.57 259.94 1261.36 261.03C1276.97 270.26 1292.66 279.489 1308.35 288.718L1333.6 303.544C1356.21 316.843 1378.89 330.142 1401.5 343.441C1429.45 326.944 1457.48 310.448 1485.44 294.024L1522.02 272.513L1364.2 178.62C1327.97 157.037 1291.74 135.453 1255.51 113.869C1234.83 126.296 1214.07 138.65 1193.32 151.005L989.777 272.44L1010.6 284.358C1043.91 303.398 1077.21 322.511 1110.52 341.551H1110.45Z" fill="#3DDE74"/>
<path d="M1235.04 638.344L1234.61 638.053L1145.1 582.023C1129.41 572.213 1113.72 562.329 1098.03 552.518C1094.54 550.338 1092.54 546.85 1092.61 542.707C1092.61 538.202 1092.61 533.696 1092.61 529.19L1091.19 407.755C1091.05 396.345 1090.9 385.009 1090.83 373.599C1087.69 371.782 1084.56 370.038 1081.35 368.221L970.09 304.561V474.977C970.09 523.376 970.09 571.849 970.09 620.249C994.837 634.711 1019.51 649.245 1044.19 663.78L1236.89 777.075V771.334C1236.89 757.381 1236.89 743.573 1236.89 729.766C1236.89 710.653 1237.03 691.54 1237.03 672.428V641.396C1237.18 640.815 1237.18 640.161 1237.25 639.507C1236.68 639.216 1236.18 638.926 1235.68 638.635L1235.18 638.272L1235.04 638.344Z" fill="#AAAAAA"/>
<path d="M1129.62 373.961C1129.12 374.252 1128.55 374.543 1127.98 374.833C1127.98 375.415 1128.05 375.923 1128.05 376.432L1129.41 503.608L1140.68 496.632C1172.84 476.72 1205.08 456.735 1237.31 436.823C1237.31 420.544 1237.31 404.266 1237.31 387.987V312.117L1129.69 373.961H1129.62Z" fill="white"/>
<path d="M1365.62 538.347L1310.63 504.045C1292.37 492.636 1274.04 481.226 1255.79 469.744C1227.83 487.113 1199.8 504.481 1171.77 521.85L1145.81 537.911L1167.64 551.573C1196.95 569.959 1226.26 588.272 1255.57 606.658C1284.46 588.708 1313.41 570.759 1342.3 552.809L1365.55 538.347H1365.62Z" fill="#3DDE74"/>
<path d="M1540.78 305.297L1536.93 307.55C1498.13 330.369 1459.26 353.188 1420.4 376.007C1420.4 409.073 1420.4 442.139 1420.4 475.205V542.717C1420.4 546.641 1418.68 549.839 1415.4 551.874C1409.56 555.435 1403.78 558.996 1398 562.629L1379.46 574.112C1344.37 595.913 1309.28 617.642 1274.19 639.444C1274.19 649.545 1274.12 659.574 1274.05 669.676L1273.7 777.085L1352.07 730.939C1414.98 693.948 1477.81 656.958 1540.71 620.041C1540.71 518.154 1540.71 416.268 1540.71 314.454V305.297H1540.78Z" fill="white"/>
<path d="M363.176 301.392C309.616 301.392 265.969 317.744 233.448 349.937V136.354H96.2324V769.62H227.672V724.272C260.05 758.864 305.551 776.378 363.176 776.378C496.041 776.378 588.826 678.707 588.826 538.885C588.826 399.064 496.041 301.392 363.176 301.392ZM340.853 417.595C406.109 417.595 449.97 466.358 449.97 538.885C449.97 611.412 406.109 660.175 340.853 660.175C275.597 660.175 231.737 611.412 231.737 538.885C231.737 466.358 275.597 417.595 340.853 417.595Z" fill="white"/>
<path d="M831.233 136.354H694.018V769.62H831.233V136.354Z" fill="white"/>
<path d="M2008.41 600.009C1986.58 639.906 1954.14 660.181 1911.99 660.181C1844.73 660.181 1799.59 611.418 1799.59 538.891C1799.59 466.364 1844.73 417.601 1911.99 417.601C1953.07 417.601 1986.44 438.385 2008.41 477.774L2010.4 481.335L2117.31 422.834L2115.74 419.273C2083.15 344.348 2009.19 301.398 1912.77 301.398C1766.71 301.398 1660.73 401.25 1660.73 538.891C1660.73 676.533 1766.71 776.384 1912.77 776.384C2008.62 776.384 2082.65 733.726 2115.74 659.382L2117.31 655.821L2010.33 596.375L2008.34 600.009H2008.41Z" fill="white"/>
<path d="M2690.21 308.151H2524.96L2342.39 484.454V136.354H2205.17V769.62H2342.39V651.818L2399.87 593.971L2538.73 769.62H2705.4L2500.71 504.657L2690.21 308.151Z" fill="white"/>
<path d="M3004.51 241.589C3022.91 241.589 3040.53 246.967 3054.22 256.85L3058.64 260.048L3095.45 156.635L3092.81 154.818C3070.06 138.83 3033.33 129.674 2992.11 129.674C2881.85 129.674 2816.09 194.207 2816.09 302.343V318.331H2747.48V427.776H2816.09V769.699H2953.31V427.776H3064.07V318.331H2950.03V303.143C2950.03 261.792 2967.86 241.662 3004.59 241.662L3004.51 241.589Z" fill="white"/>
<path d="M3469.78 536.349C3469.78 611.274 3433.91 654.224 3371.43 654.224C3314.38 654.224 3285.49 618.832 3285.49 548.994V308.158H3148.28V568.398C3148.28 700.589 3219.1 776.386 3342.48 776.386C3395.32 776.386 3442.46 757.273 3476.34 722.245V769.627H3606.92V308.158H3469.71V536.349H3469.78Z" fill="white"/>
<path d="M3855.77 136.354H3718.55V769.62H3855.77V136.354Z" fill="white"/>
</svg>
